<?xml version="1.0" encoding="utf-8"?>
<!-- Generator: Adobe Illustrator 19.2.1, SVG Export Plug-In . SVG Version: 6.00 Build 0)  -->
<svg version="1.1" id="layer" xmlns="http://www.w3.org/2000/svg" xmlns:xlink="http://www.w3.org/1999/xlink" x="0px" y="0px"
	 viewBox="0 0 652 652" style="enable-background:new 0 0 652 652;" xml:space="preserve">
<style type="text/css">
	.st0{fill:#0054A4;}
</style>
<g>
	<path class="st0" d="M99.3,199.7c3.4-0.1,6.9,0.3,10.4,0.6c14.4,2,27.7,6.5,39.5,14.5c2.7,2,6,3.8,8.6,6.4c0.6,0.6,1.3,1.6,2.1,2.4
		l2.9,3c3.9,1.7,9.2,0.6,12.8-1.9c0.6-0.3,1.3-1.2,2.2-1.8c1,3.9,0.5,8.5-0.7,11.7c-1.1,3-3.5,5.4-5.7,7.4
		c-14.4,7.7-33.5,0.8-49.1,6.3c-3.9,1.7-7.6,3.5-11,6.5c-3,2.9-5.4,5.4-7.4,8.9c-1.9,3-3,6.5-4.2,9.7c-1.2-3.2-2.3-6.7-4.2-9.7
		c-2-3.5-4.4-6-7.4-8.9c-3.4-3.1-7.1-4.8-11-6.5c-15.6-5.5-34.7,1.4-49.1-6.3c-2.2-2-4.6-4.5-5.7-7.4c-1.2-3.1-1.7-7.8-0.7-11.7
		c0.9,0.6,1.6,1.5,2.2,1.8c3.6,2.5,8.9,3.6,12.8,1.9l2.8-3c0.8-0.9,1.5-1.8,2.1-2.4c2.5-2.6,5.9-4.4,8.6-6.4
		c11.7-8.1,25.1-12.5,39.5-14.5C93,200,95.9,199.6,99.3,199.7 M95.2,218.7c-9.2,0.8-18.4,2.1-25.9,7.2c8.2,1.2,17.5,2.6,23,7.2
		c2,1.8,5.2,4.4,8.3,10.1c3.1-5.7,6.3-8.2,8.3-10.1c5.5-4.6,14.8-6.1,23-7.2c-7.6-5.1-16.7-6.4-25.9-7.2c-1.7-0.1-3.8-0.2-5.4-0.2
		C98.8,218.6,96.8,218.6,95.2,218.7"/>
	<path class="st0" d="M99.5,325.4c1.9-2.8,5-5.6,7.4-7.6c2.5-2.1,5.2-4.3,8-5.4c-5.2-2-14.3-12.4-15.5-22.1
		c-1.3,9.7-10.3,20.2-15.5,22.1c2.9,1.1,5.6,3.3,8,5.4C94.5,319.8,97.6,322.6,99.5,325.4"/>
	<path class="st0" d="M165.2,271.8c1,2.1,2.1,6.9,2.2,9.9c0,18.1-14,32.7-32.1,32.7c-18.1,0-32.7-14.6-32.7-32.7
		c0-18.1,15.3-31.9,33.3-31.9c13.5-0.6,30.1,1.8,39.5-6.1c0.2-0.2,1.2-1.1,1.5-1.4c0,0,0.8,1,1.4,2.2c7.7,13.4,12.1,28.9,12.1,45.5
		c0,42.7-29.2,78.5-68.8,88.5c-2.6-3.3-17.9-18.1-20.8-21.2c-2.7-3-11-9.4-17.1-13.3c0,0,0.2,0.1-0.8-0.5c-2.2-1.6-15.4-8.3-29.1-5
		c-6.1,1.4-12.2,7.4-13.2,13.7c-0.3,2.1-0.6,3.9-0.7,6.1c-4.9-2.2-12-9.4-13.3-15c0.4-4.3,1.8-7.3,3.8-10.9c0.6-0.8,1-1.4,1.2-1.9
		c10.7-12.9,30.1-13.2,45.4-9.2c5.1,1.6,11.6,3.9,15.8,6.5c2.9,1.5,9.3,6.3,9.3,6.3c2.8,2.3,7.2,6,8.9,7.8c2.4,2.1,5.1,4.7,7.5,7.5
		c1.1,0.9,5.2,5.5,7.8,8.1c26.3-10.6,44.8-36.4,44.8-66.5c0-8.4-1.5-16.7-4.1-24.1c-8.9,2.7-21.9,1.5-31.7,1.5
		c-7.6,0-13.8,5.8-13.8,13.4c0,7.6,6.2,13.8,13.8,13.8c7.6,0,13.8-6.2,13.8-13.8c0-3.7-1.3-6.9-3.3-9
		C151.1,273.2,163.8,272.3,165.2,271.8"/>
	<path class="st0" d="M33.6,271.8c1.4,0.6,14.4,1.5,19.7,1c-2.2,2.4-3.5,5.4-3.5,8.9c0,7.6,6.2,13.8,13.8,13.8
		c7.6,0,13.8-6.2,13.8-13.8c0-7.6-6.2-13.4-13.8-13.4c-9.9,0-22.8,1.2-31.7-1.5c-3.7-1.4-8.4-6.2-9.5-10.1c-0.6-2.3-0.7-8.3,1.1-13
		c9.4,7.9,26,5.5,39.5,6.1c18.1,0,33.3,13.8,33.3,31.9c0,18.1-14.6,32.7-32.7,32.7c-18.1,0-32.1-14.6-32.1-32.7
		C31.7,278.6,32.7,273.7,33.6,271.8"/>
	<path class="st0" d="M63.6,292.2c5.8,0,10.5-4.7,10.5-10.5c0-5.8-4.7-10.5-10.5-10.5c-5.8,0-10.5,4.7-10.5,10.5
		C53.1,287.5,57.8,292.2,63.6,292.2"/>
	<path class="st0" d="M135.3,292.2c-5.8,0-10.5-4.7-10.5-10.5c0-5.8,4.7-10.5,10.5-10.5c5.8,0,10.5,4.7,10.5,10.5
		C145.8,287.5,141.1,292.2,135.3,292.2"/>
	<path class="st0" d="M399.5,306.2c-3.1,15.1-6.1,18.4-15.9,18.4c0,0-37.7,0.1-38.7,0c-1.2,0-2.5-0.8-2.5-2.5c0-1.9,0-29.4,0-30.5
		c0-1,0.9-2.6,2.5-2.6c1.6,0,20.2,0,20.2,0c8.1,0,9.4,2.7,10.5,9.2h3.4V264h-3.4c-1.1,6.5-2.3,9.2-10.5,9.2H345
		c-1.2,0-2.6-1-2.6-2.5c0-6.9,0-25.6,0-27.2c-0.1-1.8,1.6-2.5,2.5-2.5c0.9,0,36.7,0,36.7,0c9.7,0,12.3,3.4,14.1,13.3h3.4v-21.9
		c0-1.5-0.6-7.3-6.3-7.3h-85.4v3.4c6.1,0.2,8.3,6.5,8.3,11.5v92c0,5.5,1.1,8.4,7.1,8.4h68.6c8,0,10.2,1.2,11-9.9
		c0.7-10.8,1.5-24.3,1.5-24.3H399.5z"/>
	<path class="st0" d="M300,306.2c-3.1,15.1-6.1,18.4-15.9,18.4c0,0-37.7,0.1-38.7,0c-1.2,0-2.5-0.8-2.6-2.5c0-1.9,0-29.4,0-30.5
		c0-1,0.9-2.6,2.5-2.6c1.6,0,20.2,0,20.2,0c8.1,0,9.4,2.7,10.5,9.2h3.4V264H276c-1.1,6.5-2.3,9.2-10.5,9.2h-20.2
		c-1.2,0-2.6-1-2.6-2.5c0-6.9,0-25.6,0-27.2c-0.1-1.8,1.6-2.5,2.5-2.5c1,0,36.7,0,36.7,0c9.7,0,12.3,3.4,14.1,13.3h3.4v-21.9
		c0-1.5-0.6-7.3-6.3-7.3h-85.4v3.4c6.1,0.2,8.3,6.5,8.3,11.5v92c0,5.5,1.1,8.4,7.1,8.4h68.6c8,0,10.2,1.2,11-9.9
		c0.7-10.8,1.5-24.3,1.5-24.3H300z"/>
	<path class="st0" d="M613.9,300.6L613.9,300.6v-67.3c0,0,0.3-8.1-5.3-8.1h-29.7v3.4c6.1,0.2,8.3,5.6,8.3,12v63.8
		c0,20-8.5,24.3-23.1,24.3c-14.6,0-23-4-23-24.3v-71.1c0,0,0.4-8.1-5.2-8.1h-29.7v3.4c6.1,0.2,8.2,5.6,8.2,12v62.6
		c0,30.8,17.2,41.5,49.6,41.5c32.4,0,49.6-10.6,49.7-43.7V300.6z"/>
	<path class="st0" d="M503.3,330.1c-0.6-1.6-1-2.3-2-5.5c-0.7-2.2-0.9-3.5-1.3-4.8c-0.3-0.9-1-1.4-2-0.8c-8.9,4.9-18.4,6.9-26.7,6.9
		c-23.8,0-40.7-20.8-40.7-43.4c0-27,15.9-43.1,36.4-43.1c15.1,0,25.5,7.9,28.3,22.9l4,0v-22.8c-0.1-6.8-2.3-8.7-4.9-10.3
		c-6.9-4.2-15.3-6.9-25.3-7.1c-42.2-0.6-64.1,30.3-64.1,61.6c0,30.6,22,60.5,60.9,60.5c9.7,0,23.9-3.1,35-10c0.6-0.4,1.5-1,2-1.4
		C504.1,332.2,503.5,330.7,503.3,330.1"/>
	<path class="st0" d="M175.2,427.5c-3.2,0-4.9-0.9-4.9-2.6c0-0.3,0-0.6,0.1-0.9c0.4-1.3,3.1-3.2,8.2-5.7c5-2.5,9.9-4.3,14.4-5.4
		c8.4-2,16.3-3.5,23.4-4.5c3.7-2.9,6.1-5.8,6.9-8.8c0.2-0.6,0.3-1.1,0.3-1.6c0-2-1.6-3.5-4.6-4.4c-1-0.3-4.4-0.8-9.8-1.5
		c-5.2-0.7-8.8-1.4-10.8-2.3c-2.7-1.1-4-2.8-4-5c0-0.8,0.2-1.7,0.5-2.8c1.4-4,5.9-8.2,13.5-12.4c8.1-4.5,16.1-6.9,23.8-7l0.6,0
		c5.6,0,8.4,1.6,8.4,4.8c0,1.6-0.8,3.6-2.4,6c-0.7,1-1.3,1.5-1.8,1.5c-0.1,0-0.5,0-0.5-0.5c0-0.3,0.2-0.8,0.6-1.4
		c0.9-1.3,1.3-2.5,1.3-3.5c0-2.5-2.4-3.8-7.2-3.8l-0.6,0c-6.2,0.1-12.3,1.5-17.9,4c-6.2,2.8-10.5,6.6-12.9,11.1
		c-0.5,1-0.8,1.8-0.8,2.5c0,2.6,3.8,4.4,11.4,5.4c6.2,0.8,10.5,1.6,12.8,2.3c4.2,1.3,6.2,3.1,6.1,5.3c0.2,3.7-1.9,7.4-6.2,11.2h2.2
		c0.1,0,0.2,0,0.3,0c1,0,1.1,0.4,1.1,0.7c0,0.7-0.6,1.1-1.9,1.1c-1.4,0.1-2.8,0.2-4.3,0.4c-7,5.3-16.3,10-27.4,13.8
		C185.2,426.1,179.2,427.5,175.2,427.5 M212,411.3c-4.7,1.2-10.8,2.7-18.8,4.6c-4.1,0.9-8.4,2.4-12.8,4.4c-5.4,2.4-6.6,3.7-6.7,4.4
		c0.1,0.2,0.3,0.4,0.9,0.4c2.5,0,8.3-1.6,17.2-4.6C199.5,417.8,206.3,414.7,212,411.3"/>
	<path class="st0" d="M238.6,373.2c-0.7,1-1.2,1.4-1.6,1.4c-0.2,0-0.3-0.1-0.3-0.3c0-0.3,0.2-0.7,0.5-1.3c0.9-1.3,1.3-2.6,1.3-3.6
		c0-2.8-2.7-4.2-8-4c-6.3,0.1-12.3,1.5-18,4c-6.2,2.9-10.6,6.6-13,11.2c-0.5,1-0.8,1.9-0.8,2.6c0,2.7,3.9,4.6,11.6,5.6
		c6.2,0.8,10.5,1.6,12.7,2.3c4.1,1.2,6.1,2.9,5.9,5.1c0.2,3.8-2,7.5-6.5,11.4h2.7c0.8-0.1,1.2,0.1,1.2,0.5c0,0.6-0.6,0.9-1.7,0.9
		c-1.4,0.1-2.8,0.2-4.3,0.4c-7.1,5.4-16.3,10-27.5,13.8c-7.8,2.6-13.7,4-17.7,4c-3.1,0-4.7-0.8-4.7-2.4c0-0.3,0-0.6,0.1-0.8
		c0.4-1.2,3-3.1,8.1-5.6c5-2.5,9.8-4.3,14.4-5.3c8.4-2,16.2-3.5,23.4-4.5c3.9-3,6.2-5.9,7.1-8.9c0.2-0.6,0.3-1.1,0.3-1.7
		c0-2.1-1.6-3.7-4.8-4.6c-1-0.3-4.3-0.8-9.8-1.5c-5.2-0.7-8.8-1.4-10.8-2.3c-2.6-1.1-3.9-2.7-3.9-4.8c0-0.8,0.2-1.7,0.5-2.7
		c1.4-4,5.8-8.1,13.4-12.3c8.1-4.5,16-6.9,23.7-7c5.8-0.1,8.8,1.4,8.8,4.5C241,368.9,240.2,370.9,238.6,373.2 M213.2,410.8
		c-4.8,1.2-11.5,2.9-20.1,4.9c-4.1,1-8.4,2.4-12.8,4.4c-4.4,2-6.7,3.5-6.8,4.6c-0.1,0.4,0.3,0.6,1.1,0.6c2.5,0,8.3-1.5,17.2-4.6
		C200.2,417.8,207.3,414.5,213.2,410.8"/>
	<path class="st0" d="M259.8,417.4c-0.5,0-1.1-0.2-1.8-0.6c-0.3-0.2-1.1-0.7-0.9-1.2c1.3-2.2,4.7-7.8,10.2-16.8
		c0.4-0.7,0.5-1,0.5-1.1c0-0.1,0-0.1-0.1-0.1c-0.6,0-2.5,0.9-8.2,5.3c-4.3,3.4-6.9,5.7-7.7,6.8c-0.2,0.4-0.9,0.8-1.9,1.5
		c-1,0.6-1.9,1-2.5,1c-0.3,0-0.9-0.1-0.9-1c0-0.4,0.1-0.9,0.4-1.6c0.4-1.1,1.9-4.4,4.4-10.2c0.2-0.4,0.2-0.8,0.2-1
		c0-0.4-0.2-0.5-0.4-0.5c-1.4,0-4.6,1.9-9.6,5.8c-4.7,3.6-7.6,6.1-8.4,7.4c-0.3,0.4-1.1,1.1-2.5,2.1c-1.9,1.5-2.5,1.6-2.8,1.6h-0.1
		c-0.4,0-0.6-0.1-0.8-0.2c-0.2-0.2-0.2-0.4-0.2-0.7c0-0.7,0.3-1.4,0.8-2.2c1-1.4,3.2-4.5,6.6-9.2c2.3-3.1,4-5.7,5-7.7
		c0.3-0.5,1.1-1.3,6-2.8c0.2-0.2,0.4-0.3,0.6-0.3c0.2,0,0.3,0.1,0.4,0.2c0.1,0.2,0.1,0.5-0.1,0.9c-0.3,0.6-0.8,1.1-1.4,1.5
		c-4,4.7-6.6,7.8-7.7,9.3l15.5-10c0.8-0.5,1.4-0.7,2-0.7c1,0,2.2,0.5,2.2,2.7c0,0.5-0.1,1-0.3,1.6l-2.2,6.6c2.9-2.2,5.7-4.3,8.6-6.5
		c5.4-3.8,9.2-5.7,11.4-5.7c1.3,0,2,0.7,2.2,2c-0.7,1.2-4.8,7.2-12.7,18.6c0,0.1-0.1,0.2-0.1,0.3c0,0.3,0.1,0.4,0.4,0.5
		c0.1,0,0.2,0,0.3,0c0.2,0,0.3,0,0.5-0.1c1.7-0.6,3.6-1.4,5.7-2.5c1.7-0.8,3.4-1.7,5-2.5l0.3-0.2v0.3c0,0.6-0.2,1.3-0.5,2
		c-3.4,1.8-8.2,4.2-14.9,7.3C260.1,417.3,260,417.4,259.8,417.4"/>
	<path class="st0" d="M263.3,411.9c-0.1,0.2-0.1,0.3-0.1,0.4c0,0.3,0.2,0.6,0.5,0.7c0.3,0.1,0.6,0,0.9-0.1c1.7-0.6,3.6-1.4,5.7-2.5
		c1.7-0.8,3.4-1.7,5-2.5c0,0.6-0.1,1.2-0.4,1.9c-3.3,1.7-8.2,4.2-14.8,7.2c-0.1,0.1-0.2,0.1-0.3,0.1c-0.5,0-1-0.2-1.7-0.6
		c-0.7-0.4-0.9-0.7-0.8-0.9c1.3-2.2,4.7-7.8,10.2-16.7c0.4-0.6,0.5-1,0.5-1.3c0-0.2-0.1-0.3-0.3-0.3c-0.9,0-3.7,1.8-8.3,5.4
		c-4.3,3.4-6.9,5.7-7.8,6.8c-0.2,0.3-0.9,0.8-1.9,1.4c-1,0.6-1.8,0.9-2.4,0.9c-0.5,0-0.7-0.3-0.7-0.8c0-0.4,0.1-0.9,0.4-1.5
		c0.4-1.1,1.9-4.5,4.4-10.2c0.2-0.4,0.3-0.8,0.3-1.1c0-0.4-0.2-0.7-0.6-0.7c-1.4,0-4.6,1.9-9.7,5.8c-4.8,3.6-7.6,6.1-8.5,7.4
		c-0.2,0.3-1.1,1-2.5,2.1s-2.3,1.6-2.7,1.6c-0.6,0.1-0.9-0.2-0.9-0.8c0-0.6,0.3-1.3,0.8-2.1c1-1.5,3.2-4.5,6.6-9.2
		c2.4-3.1,4-5.7,5-7.7c0.4-0.7,2.3-1.6,5.9-2.7c0.2-0.2,0.4-0.3,0.5-0.3c0.3,0,0.3,0.3,0.1,0.8c-0.3,0.5-0.7,1-1.3,1.4
		c-5.1,5.9-7.9,9.4-8.4,10.3l16.4-10.6c0.7-0.5,1.3-0.7,1.9-0.7c1.3,0,1.9,0.8,1.9,2.5c0,0.5-0.1,1-0.3,1.5l-2.5,7.3
		c3.1-2.3,6.1-4.6,9.1-6.9c5.4-3.8,9.1-5.7,11.2-5.7c1.2,0,1.9,0.6,2,1.8C275.3,394.6,271.1,400.7,263.3,411.9"/>
	<path class="st0" d="M275.4,415.3c-1,0-2.2-0.4-2.2-2.5c0-1.3,0.4-2.7,1.3-4.2c2.1-3.9,5.7-7.8,10.6-11.8
		c5.9-4.7,10.8-7.2,14.6-7.2c2.2,0,3.9,0.5,4.8,1.4c1.4-0.9,2.8-1.4,4.3-1.4c0.6,0,0.7,0.3,0.7,0.5c0,0.1,0,0.3-0.3,0.5
		c-1.7,1.8-3.7,4.9-6,9.2c-2.7,5-4.1,8.8-4.1,11.3c0,0.4,0,0.7,0.1,1c0.1,0.4-0.1,0.9-0.5,1.4c-0.4,0.6-0.8,0.8-1.3,0.8
		c-0.9,0-1.3-1.1-1.3-3.6c0-3.4,0.8-6.8,2.4-10.2c-1.8,1.5-4,3.2-6.8,5.4c-5.7,4.4-10.3,7.4-13.6,8.8
		C277,415.1,276.2,415.3,275.4,415.3 M299.2,393.2c-2.1,0-5.4,1.7-9.8,5c-5.2,3.9-8.6,7.1-10,9.6c-0.5,0.9-0.8,1.7-0.8,2.4
		c0,0.8,0.3,0.8,0.4,0.8c0.1,0,0.2,0,0.3-0.1c1.8-0.8,5.6-3.4,11.2-7.7c5.3-4.1,8.8-7.1,10.6-8.9
		C300.7,393.6,300.1,393.2,299.2,393.2"/>
	<path class="st0" d="M309,390.4c-1.7,1.8-3.7,4.9-6.1,9.3c-2.8,5.1-4.2,8.9-4.2,11.4c0,0.4,0,0.7,0.1,1c0.1,0.3-0.1,0.8-0.5,1.3
		c-0.4,0.5-0.8,0.8-1.1,0.8c-0.7,0-1.1-1.1-1.1-3.4c0-3.6,0.9-7.3,2.7-10.9c-1.8,1.5-4.3,3.5-7.5,6c-5.7,4.4-10.2,7.3-13.5,8.7
		c-0.9,0.4-1.8,0.6-2.5,0.6c-1.4,0-2-0.8-2-2.3c0-1.2,0.4-2.6,1.2-4.1c2.1-3.8,5.6-7.7,10.5-11.7c5.9-4.7,10.7-7.1,14.5-7.1
		c2.3,0,3.9,0.5,4.8,1.4c1.4-0.9,2.8-1.4,4.3-1.4c0.3,0,0.4,0.1,0.4,0.3C309.2,390.2,309.1,390.3,309,390.4 M301.3,394.4
		c-0.4-1-1.1-1.4-2.1-1.4c-2.1,0-5.4,1.7-9.9,5.1c-5.2,3.9-8.6,7.2-10.1,9.7c-0.5,1-0.8,1.8-0.8,2.5c0,0.9,0.3,1.2,1,0.9
		c1.8-0.8,5.6-3.4,11.2-7.7C296.1,399.2,299.6,396.2,301.3,394.4"/>
	<path class="st0" d="M302.4,415c-0.7,0-0.7-0.4-0.7-0.6c0-0.2,0.1-0.4,0.2-0.7c0.7-0.9,1.5-2,2.6-3.6c0.7-0.9,2.1-3,4.4-6.5
		c0.9-1.2,2-3.1,3.2-5.5c0.1-0.6,0.2-1.6,0.3-2.8c0.1-0.3,0.4-0.7,3.3-1.9c2.1-0.9,3.4-1.3,4.1-1.3c0.6,0,0.7,0.3,0.7,0.5
		c0,0.2-0.1,0.5-0.3,0.7c-1.8,2.3-3.7,5.1-5.9,8.4c4.4-3.5,6.8-5.4,7.4-5.8c4.3-2.9,8.2-4.3,11.6-4.3c0.4,0,0.8,0.2,0.8,1.4
		c0,0.8-0.2,1.7-0.6,2.6c-0.4,1-0.9,1.5-1.5,1.5c-0.2,0-0.3-0.1-0.5-0.2c-0.1-0.1-0.2-0.2,0-1.2c0-0.4,0-0.5-0.1-0.6h-0.1
		c-5.1,0-11.1,3.1-17.9,9.2c-1.3,1.2-3.1,3.5-5.3,6.6l-0.9,1.8l-2.5,1.4C303.7,414.7,302.9,415,302.4,415"/>
	<path class="st0" d="M333.2,391.8c0.4,0,0.6,0.4,0.6,1.2c0,0.8-0.2,1.6-0.6,2.6c-0.4,0.9-0.8,1.4-1.3,1.4c-0.1,0-0.2-0.1-0.3-0.2
		c-0.1-0.1,0-0.4,0.1-1c0.1-0.6-0.1-0.8-0.4-0.8c-5.1,0-11.1,3.1-18,9.3c-1.4,1.2-3.1,3.4-5.3,6.7l-0.9,1.8l-2.4,1.3
		c-1.1,0.6-1.9,0.9-2.4,0.9c-0.4,0-0.5-0.1-0.5-0.4c0-0.2,0.1-0.4,0.2-0.6c0.6-0.8,1.5-2,2.6-3.6c0.7-0.9,2.2-3.1,4.4-6.5
		c0.9-1.2,2-3.1,3.2-5.6c0.1-0.7,0.2-1.6,0.4-2.9c0.1-0.3,1.1-0.9,3.2-1.7c2.1-0.9,3.4-1.3,4-1.3c0.3,0,0.4,0.1,0.4,0.3
		c0,0.2-0.1,0.4-0.3,0.6c-1.9,2.5-4.1,5.7-6.5,9.5c4.9-3.9,7.7-6.1,8.4-6.6C326,393.2,329.8,391.8,333.2,391.8"/>
	<path class="st0" d="M337.6,415.1c-0.9,0-2.1-0.3-3.6-0.8c-2.2-0.8-3.3-2-3.3-3.5c0-0.8,0.2-1.6,0.7-2.5c1-1.9,2.5-4.5,4.5-7.8
		c1.2-1.8,2.4-3.6,3.5-5.5c0.3-1.4,0.2-2.3-0.3-2.5c-1.4-0.7-2.1-1.2-2.1-1.7c0-0.4,0.6-0.7,1.1-0.8c1.5-0.3,3.4-0.6,6-0.7
		c1.8-2.4,3.9-4.8,5.9-7c2.1-2.3,3.7-3.8,4.8-4.5c1.7-1,3.4-1.5,5.2-1.5c0.3,0,0.9,0,0.9,0.4c0,0.2-0.1,0.4-0.5,0.6
		c-2,1.3-4,2.8-6,4.5c-0.2,0.2-2,2.2-5.6,6.1c-0.3,0.3-0.5,0.7-0.5,1c0,0.1,0,0.5,0.9,0.6c0.5,0,1.2,0,1.9,0c1.4,0,2.9,0,4.7,0.1
		c0.3,0,1,0.1,1,0.6c0,0.7-1,1.1-3.1,1.1c-1.3,0-3.6,0.2-6.6,0.5c-0.7,0.1-1.6,0.5-2.6,1.1c-3.8,4.9-6.7,9.9-8.6,15
		c-0.6,1.6-0.9,2.7-0.9,3.4c0,0.8,0.4,1.2,1.3,1.2c0.6,0,1.5-0.2,2.5-0.6c0.5-0.2,1.9-1,4.3-2.4c3.3-2,3.7-2,3.8-2
		c1,0,1.1,0.5,1.1,0.9c0,0.5-0.3,0.9-0.8,1.3l-2,1.5l-1.3,0.9c-1.9,1.2-3.7,2.1-5.4,2.8C338.4,415,338,415.1,337.6,415.1"/>
	<path class="st0" d="M360.6,377.1c-2.1,1.3-4.1,2.8-6,4.5c-0.2,0.2-2.1,2.3-5.7,6.1c-0.4,0.4-0.5,0.8-0.5,1.1
		c0,0.5,0.3,0.7,1.1,0.8c1.7-0.1,3.9,0,6.6,0.1c0.5,0.1,0.8,0.2,0.8,0.4c0,0.6-1,0.9-2.9,0.9c-1.3,0-3.6,0.2-6.6,0.5
		c-0.8,0.1-1.7,0.5-2.7,1.2c-3.9,5-6.8,10-8.7,15.1c-0.7,1.6-1,2.8-1,3.4c0,1,0.5,1.4,1.5,1.4c0.7,0,1.5-0.2,2.6-0.6
		c0.5-0.2,2-1,4.3-2.4c2.2-1.3,3.4-1.9,3.7-1.9c0.6,0,0.9,0.2,0.9,0.7c0,0.4-0.2,0.8-0.7,1.1c-1.7,1.2-2.8,2-3.3,2.4
		c-1.9,1.2-3.7,2.1-5.4,2.8c-0.9,0.3-2.4,0.1-4.5-0.6c-2.1-0.8-3.2-1.9-3.2-3.3c0-0.7,0.2-1.6,0.7-2.4c1-1.9,2.5-4.5,4.5-7.7
		c1.2-1.8,2.4-3.6,3.5-5.5c0.4-1.6,0.2-2.5-0.4-2.8c-1.3-0.6-1.9-1.1-1.9-1.5c0-0.2,0.3-0.4,1-0.6c1.5-0.3,3.4-0.6,5.9-0.7
		c2-2.5,4-4.8,6.1-7.1c2.1-2.3,3.7-3.7,4.8-4.4c1.6-1,3.4-1.5,5.1-1.5c0.5,0,0.7,0.1,0.7,0.2C361,376.9,360.8,377,360.6,377.1"/>
	<path class="st0" d="M353.4,415.8c-1.9,0-3.5-0.5-4.8-1.4c-1.4-0.9-2.1-2.1-2.1-3.4c0-0.6,0.2-1.4,0.5-2.2
		c1.8-4.8,6.3-10.3,13.5-16.4c0.1-0.1,0.3-0.2,4.5-1.6c3.6-1.1,4.3-1.3,4.5-1.3c2.4,0.4,3.5,1.3,3.5,2.8c0,2.8-2.3,5.5-6.9,8.2
		c-4.1,2.4-7.7,3.6-10.8,3.6c-0.6,0-1.2-0.1-1.7-0.1c-1.1,1.4-2,2.8-2.6,4c-0.4,0.9-0.7,1.7-0.7,2.6c0,1.7,0.7,2.6,2.2,2.6
		c1.5,0,4.1-0.7,7.6-2c3.3-1.2,5.6-2.3,6.9-3.3c0.5-0.3,1-0.5,1.4-0.5c0.7,0,0.7,0.4,0.7,0.6c-0.1,0.4-0.4,0.8-1,1.3
		c-1.8,1.2-4.1,2.6-6.9,4C357.8,415,355.1,415.8,353.4,415.8 M355.9,401.2c0.6,0.4,1.4,0.7,2.2,0.7c2,0,4.2-1.1,6.6-3.2
		c2.2-2,3.3-3.8,3.3-5.1c0-0.6-0.3-1-1-1.1c-0.1,0-0.3,0-0.4,0C364.1,392.4,360.5,395.4,355.9,401.2"/>
	<path class="st0" d="M355.4,404c-0.7,0-1.2-0.1-1.8-0.2c-1.2,1.5-2.1,2.9-2.7,4.1c-0.5,0.9-0.7,1.8-0.7,2.7c0,1.8,0.8,2.8,2.4,2.8
		c1.6,0,4.1-0.7,7.7-2c3.3-1.2,5.6-2.3,7-3.3c0.5-0.3,0.9-0.4,1.2-0.4c0.4,0,0.5,0.1,0.5,0.4c-0.1,0.3-0.4,0.7-0.9,1.1
		c-1.8,1.2-4.1,2.6-6.9,4c-3.5,1.6-6.1,2.4-7.8,2.4c-1.8,0-3.4-0.5-4.7-1.3c-1.3-0.9-2-2-2-3.2c0-0.6,0.1-1.3,0.4-2.1
		c1.8-4.8,6.2-10.2,13.4-16.3c0.2-0.1,1.7-0.6,4.5-1.5c2.8-0.9,4.3-1.3,4.6-1.3c2.2,0.3,3.3,1.2,3.3,2.6c0,2.7-2.3,5.4-6.8,8
		C362,402.8,358.4,404,355.4,404 M367,392.3c-2.6-0.4-6.4,2.6-11.4,9c0.7,0.6,1.5,0.8,2.5,0.8c2.1,0,4.3-1.1,6.7-3.3
		c2.2-2.1,3.4-3.8,3.4-5.3C368.2,392.8,367.8,392.4,367,392.3"/>
	<path class="st0" d="M370.1,415c-0.7,0-0.7-0.4-0.7-0.6c0-0.2,0.1-0.4,0.2-0.7c0.7-0.9,1.5-2.1,2.6-3.6c0.7-0.9,2.1-3,4.4-6.5
		c0.9-1.2,2-3.1,3.2-5.5c0.1-0.6,0.2-1.6,0.3-2.8c0-0.2,0.1-0.6,3.3-1.9c2.1-0.9,3.4-1.3,4.1-1.3c0.6,0,0.7,0.3,0.7,0.5
		c0,0.2-0.1,0.5-0.3,0.7c-1.7,2.3-3.7,5.1-5.9,8.4c4.4-3.5,6.8-5.4,7.4-5.8c4.3-2.9,8.2-4.3,11.6-4.3c0.4,0,0.8,0.3,0.8,1.4
		c0,0.8-0.2,1.7-0.6,2.6c-0.4,1-0.9,1.5-1.5,1.5c-0.2,0-0.3-0.1-0.5-0.2c-0.1-0.1-0.2-0.2,0-1.2c0.1-0.4,0-0.5-0.1-0.6h-0.1
		c-5.1,0-11.1,3.1-17.9,9.2c-1.3,1.2-3.1,3.5-5.3,6.6l-0.9,1.8l-2.5,1.4C371.4,414.7,370.6,415,370.1,415"/>
	<path class="st0" d="M401,391.8c0.4,0,0.6,0.4,0.6,1.2c0,0.8-0.2,1.6-0.6,2.6c-0.4,0.9-0.8,1.4-1.3,1.4c-0.1,0-0.2-0.1-0.4-0.2
		c-0.1-0.1,0-0.4,0.1-1c0.1-0.6-0.1-0.8-0.4-0.8c-5.1,0-11.1,3.1-18,9.3c-1.4,1.2-3.1,3.4-5.3,6.7l-0.9,1.8l-2.4,1.3
		c-1.1,0.6-1.9,0.9-2.4,0.9c-0.4,0-0.5-0.1-0.5-0.4c0-0.2,0.1-0.4,0.2-0.6c0.6-0.8,1.5-2,2.6-3.6c0.7-0.9,2.2-3.1,4.4-6.5
		c0.9-1.2,2-3.1,3.2-5.6c0.1-0.7,0.2-1.6,0.4-2.9c0.1-0.3,1.1-0.9,3.2-1.7c2.1-0.9,3.4-1.3,4-1.3c0.3,0,0.4,0.1,0.4,0.3
		c0,0.2-0.1,0.4-0.3,0.6c-1.9,2.5-4.1,5.7-6.5,9.5c4.9-3.9,7.7-6.1,8.4-6.6C393.8,393.2,397.6,391.8,401,391.8"/>
	<path class="st0" d="M440.2,415.3c-1,0-2.2-0.4-2.2-2.5c0-1.3,0.4-2.7,1.3-4.2c2.1-3.8,5.7-7.8,10.6-11.7
		c5.9-4.8,10.8-7.2,14.6-7.2c2.2,0,3.9,0.5,4.8,1.4c1.4-0.9,2.8-1.4,4.3-1.4c0.6,0,0.6,0.3,0.6,0.5c0,0.2-0.1,0.3-0.2,0.5
		c-1.7,1.8-3.7,4.9-6,9.2c-2.7,5.1-4.1,8.8-4.1,11.3c0,0.4,0,0.7,0.1,1c0.1,0.4-0.1,0.9-0.5,1.4c-0.4,0.6-0.8,0.8-1.3,0.8
		c-0.9,0-1.3-1.1-1.3-3.6c0-3.4,0.8-6.8,2.3-10.2c-1.7,1.4-4,3.2-6.8,5.4c-5.7,4.4-10.3,7.4-13.6,8.8
		C441.8,415.1,440.9,415.3,440.2,415.3 M464,393.2c-2.1,0-5.4,1.7-9.8,5c-5.2,3.9-8.6,7.1-10,9.6c-0.5,0.9-0.8,1.7-0.8,2.4
		c0,0.8,0.3,0.8,0.4,0.8c0.1,0,0.2,0,0.3-0.1c1.8-0.8,5.6-3.4,11.2-7.7c5.3-4.1,8.8-7.1,10.6-8.9C465.5,393.6,464.9,393.2,464,393.2
		"/>
	<path class="st0" d="M473.8,390.4c-1.7,1.8-3.7,4.9-6.1,9.3c-2.8,5.1-4.2,8.9-4.2,11.4c0,0.4,0,0.7,0.1,1c0.1,0.3-0.1,0.8-0.5,1.3
		c-0.4,0.5-0.8,0.8-1.1,0.8c-0.7,0-1.1-1.1-1.1-3.4c0-3.6,0.9-7.3,2.7-10.9c-1.8,1.5-4.3,3.5-7.5,6c-5.7,4.4-10.2,7.3-13.5,8.7
		c-0.9,0.4-1.8,0.6-2.5,0.6c-1.4,0-2-0.8-2-2.3c0-1.2,0.4-2.6,1.2-4.1c2.1-3.8,5.6-7.7,10.5-11.7c5.9-4.7,10.7-7.1,14.5-7.1
		c2.3,0,3.9,0.5,4.8,1.4c1.4-0.9,2.8-1.4,4.3-1.4c0.3,0,0.4,0.1,0.4,0.3C473.9,390.2,473.9,390.3,473.8,390.4 M466.1,394.4
		c-0.4-1-1.1-1.4-2.1-1.4c-2.1,0-5.4,1.7-9.9,5.1c-5.2,3.9-8.6,7.2-10.1,9.7c-0.5,1-0.8,1.8-0.8,2.5c0,0.9,0.3,1.2,1,0.9
		c1.8-0.8,5.6-3.4,11.2-7.7C460.8,399.2,464.4,396.2,466.1,394.4"/>
	<path class="st0" d="M468,415.5c-0.4,0-0.7-0.1-0.9-0.2c-0.2-0.2-0.3-0.4-0.3-0.8c0-0.6,0.4-1.3,1.1-2.2c0.4-0.5,3.3-4.7,8.2-11.9
		c0.1-0.1,0.1-0.1,0-0.3c-0.2-0.2-0.3-0.5-0.2-0.7c0.8-0.8,1.9-1.8,3.2-3.2c0.9-1.1,2.2-1.7,4.1-1.7c0.8,0,0.9,0.3,0.9,0.5
		c-0.1,0.2-0.2,0.4-0.3,0.5c-1.6,1.5-3.3,3.5-5.1,5.8c-2.5,3.1-3.7,5.2-3.7,6.1c4.2-2.9,9.8-6.8,16.9-11.7c1.4-1,3-1.6,4.7-1.6
		c1.3,0,1.6,0.7,1.6,1.2c0,0.8-0.6,1.9-1.9,3.4c-0.6,0.6-1.2,1.9-1.8,3.8c-0.6,1.9-0.9,3.6-0.9,5c0,2.5,1,2.5,1.4,2.5
		c0.2,0,0.3,0,0.5-0.1c3.1-0.7,5.7-1.8,7.8-3.2c0.6-0.4,1.1-0.5,1.7-0.5c0.6,0,0.6,0.4,0.6,0.5c0,0.2-0.1,0.5-0.8,1.3
		c-0.9,0.9-2.9,2-5.9,3.1c-3,1.1-5.3,1.7-6.9,1.7c-2.4,0-3.6-1.2-3.6-3.7c0-1.7,1-4.7,3-8.9c0.2-0.4,0.3-0.8,0.3-1.1
		c0-0.2-0.1-0.4-0.4-0.4c-0.5,0-1.1,0.3-1.9,0.8c-4.7,3.1-8.4,5.9-11,8.3c-3.7,3.5-6,5.6-6.3,5.8c-0.7,0.6-1.7,1-3,1.3
		C468.6,415.4,468.3,415.5,468,415.5"/>
	<path class="st0" d="M504.6,408.2c-0.9,0.9-2.8,1.9-5.8,3.1c-3,1.1-5.3,1.7-6.8,1.7c-2.3,0-3.4-1.2-3.4-3.5c0-1.7,1-4.6,3-8.8
		c0.2-0.5,0.3-0.8,0.3-1.2c0-0.4-0.2-0.6-0.6-0.6c-0.5,0-1.2,0.3-2,0.8c-4.7,3.1-8.4,5.9-11,8.3c-3.9,3.6-6,5.6-6.3,5.8
		c-0.7,0.6-1.7,1-2.9,1.3c-1.4,0.3-2,0.1-2-0.7c0-0.5,0.3-1.2,1.1-2.1c0.4-0.5,3.1-4.5,8.2-11.9c0.1-0.2,0.1-0.3-0.1-0.5
		c-0.1-0.2-0.2-0.3-0.1-0.5c0.8-0.7,1.9-1.8,3.2-3.1c0.8-1.1,2.2-1.6,4-1.6c0.5,0,0.7,0.1,0.7,0.3c-0.1,0.1-0.2,0.3-0.3,0.4
		c-1.5,1.5-3.2,3.4-5.1,5.8c-2.5,3.1-3.8,5.2-3.8,6.2c0,0.1,0,0.2,0.1,0.3c4.2-3,10-6.9,17.1-11.9c1.4-1,3-1.5,4.6-1.5
		c0.9,0,1.4,0.3,1.4,1c0,0.7-0.6,1.8-1.9,3.3c-0.6,0.7-1.2,2-1.8,3.9c-0.6,1.9-0.9,3.6-0.9,5c0,2.1,0.7,3,2.1,2.6
		c3.1-0.7,5.7-1.8,7.9-3.2c0.5-0.3,1.1-0.5,1.6-0.5c0.3,0,0.4,0.1,0.4,0.3C505.4,407.2,505.1,407.6,504.6,408.2"/>
	<path class="st0" d="M500.7,416.1c-0.7,0-0.8-0.3-0.8-0.5c0-0.1,0-0.3,0.1-0.4c10.5-19.2,20.5-33.2,29.6-41.4
		c4-3.6,8.7-5.4,13.7-5.4c2.2,0,4.2,0.4,5.9,1.3c0.5,0.2,0.6,0.5,0.6,0.7c0,0.7-1,1.6-3.1,2.7l-0.1,0.1l-0.1-0.1
		c-1.6-1.3-3.4-2-5.4-2c-3.4,0-7.1,1.8-11.1,5.3c-4.4,3.9-11.2,13.5-20.1,28.6c0,0.1,0,0.2,0,0.2c0.3,0,1.6-0.8,7.9-5.5
		c0.3-0.3,0.9-0.6,1.6-1.1c0-2.9,1.1-4.4,3.2-4.4c1.4,0,1.9,0.6,2,1.1c2.9-1.6,7-3.7,12.3-6.2l0.2-0.1l0.1,0.2
		c0.3,0.6,0.5,1.3,0.5,1.9c0,1.8-1.3,3.5-3.7,5c-1.1,0.7-3.3,1.7-6.3,2.9c-0.1,0.1-0.7,0.3-3.8,1.2c-0.7,4.4-0.7,8-0.1,10.7
		c0.3,1.3,0.8,1.9,1.6,1.9c0.2,0,0.5,0,0.7-0.1c1.7-0.6,3.6-1.4,5.7-2.5c1.7-0.8,3.4-1.7,5-2.5l0.3-0.2v0.3c0,0.6-0.2,1.3-0.5,2
		c-1.9,1.1-3.7,2-5.6,3.1c-2.4,1.2-4.6,2.1-6.6,2.5c-0.2,0-0.3,0-0.5,0c-0.8,0-1.6-0.4-2.7-1.1c-1.3-0.9-2.1-2.1-2.3-3.8
		c-0.3-2.3-0.3-5.3,0-9c-5.6,4-9.9,7.9-12.8,11.6c-0.6,0.8-1.5,1.4-2.6,2C502.3,415.8,501.4,416.1,500.7,416.1"/>
	<path class="st0" d="M509.7,404.8c-0.1,0.3,0,0.5,0.3,0.5c0.4,0,3-1.8,8-5.6c0.4-0.3,0.9-0.7,1.7-1.2c0-2.9,1-4.3,3-4.3
		c1.2,0,1.9,0.4,1.9,1.3c2.9-1.7,9.5-6.3,12.5-6.3c0.7,0,0.4,1.2,0.4,1.9c0,1.7-1.2,3.3-3.6,4.8c-1.1,0.7-3.2,1.7-6.3,2.9
		c-0.2,0.1-1.5,0.5-3.9,1.3c-0.7,4.5-0.7,8.2-0.1,10.9c0.3,1.4,0.9,2.1,1.8,2.1c0.2,0,0.5,0,0.7-0.1c1.7-0.6,3.6-1.4,5.7-2.5
		c1.7-0.8,3.4-1.7,5-2.5c0,0.6-0.1,1.2-0.4,1.9c-1.8,1-3.6,1.9-5.5,2.9c-2.4,1.2-4.6,2.1-6.5,2.5c-0.8,0.2-1.8-0.2-3-1
		c-1.2-0.8-2-2-2.2-3.6c-0.3-2.4-0.3-5.5,0-9.4c-5.8,4.1-10.3,8-13.3,11.9c-0.6,0.7-1.4,1.4-2.6,1.9c-1.1,0.6-2,0.9-2.6,0.9
		c-0.4,0-0.6-0.1-0.6-0.3c0-0.1,0-0.2,0.1-0.3c10.5-19.3,20.4-33.1,29.6-41.3c4-3.6,8.5-5.4,13.6-5.4c2.2,0,4.1,0.4,5.8,1.3
		c0.3,0.1,0.4,0.3,0.4,0.5c0,0.6-1,1.5-3,2.5c-1.7-1.3-3.5-2-5.6-2c-3.5,0-7.2,1.8-11.2,5.4C525.4,380.1,518.7,389.6,509.7,404.8"/>
	<path class="st0" d="M533.6,415.8c-0.2,0-0.4-0.2-0.4-0.4c0-0.1,0-0.2,0.1-0.3c2.3-3,4.5-6,6.7-9c2.4-3.5,4-6.7,4.6-9.7
		c0.1-0.4,0.6-1,3.6-2.2c1.8-0.7,3-1.1,3.8-1.1c0.3,0,0.6,0.1,0.7,0.3c0.1,0.1,0.1,0.3,0,0.5c-0.7,2-2.6,4.9-5.5,8.5
		c-3.8,4.6-5.5,6.7-6.2,7.6c1.5-0.6,4-1.5,7.4-2.7c4.1-1.4,6.7-2.2,7.8-2.4l0.2,0l0.1,0.2c0.3,1.1,0.2,1.8-0.5,2
		c-3.7,1.1-6.5,2.1-8.4,2.8c-4,1.5-7.1,2.9-9.1,4.1C535.7,415.1,534.2,415.8,533.6,415.8 M553.3,387.4l0.4-0.4c1.2-1.4,2.6-3.1,4-5
		c0.2-0.6,0.9-0.9,1.9-0.9c0.9,0,1.7,0.2,2.6,0.6c0.9,0.4,1.4,0.8,1.4,1.3c0,0.2-0.1,0.4-0.4,0.6c-2.2,1.6-3.6,2.5-4.1,2.7
		c-0.5,0.2-2.3,0.5-5.2,1.1L553.3,387.4z"/>
	<path class="st0" d="M555.7,406.7c-3.8,1.2-6.6,2.1-8.4,2.8c-4.1,1.5-7.1,2.9-9.1,4.1c-2.5,1.3-4.1,1.9-4.7,1.9
		c-0.1,0-0.2-0.1-0.2-0.2c0-0.1,0-0.1,0.1-0.3c2.2-3,4.4-6,6.6-9c2.5-3.5,4-6.8,4.6-9.8c0.1-0.5,1.3-1.2,3.4-2.1
		c1.8-0.7,3-1.1,3.7-1.1c0.5,0,0.6,0.2,0.5,0.5c-0.7,2-2.5,4.8-5.5,8.4c-4.4,5.4-6.6,8.1-6.7,8.2c1.4-0.6,4.1-1.6,8.2-3
		c4.1-1.4,6.7-2.2,7.7-2.4C556.4,406,556.3,406.6,555.7,406.7 M563.2,383.4c-2.2,1.6-3.5,2.5-4.1,2.7c-0.5,0.2-2.3,0.5-5.2,1
		c1.2-1.4,2.6-3.1,4.1-5c0.2-0.6,0.8-0.8,1.8-0.8c0.8,0,1.6,0.2,2.5,0.5c0.8,0.4,1.2,0.7,1.2,1.1
		C563.4,383.2,563.3,383.3,563.2,383.4"/>
	<path class="st0" d="M550.4,415.5c-0.4,0-0.7-0.1-0.9-0.2c-0.2-0.2-0.4-0.4-0.4-0.8c0-0.6,0.4-1.3,1.1-2.2
		c0.4-0.5,3.2-4.5,8.2-11.8c0.1-0.1,0.1-0.1,0-0.3c-0.2-0.3-0.2-0.5-0.2-0.7c0.9-0.8,1.9-1.8,3.2-3.2c0.9-1.1,2.2-1.7,4.1-1.7
		c0.8,0,0.9,0.3,0.9,0.5c-0.1,0.2-0.2,0.4-0.3,0.5c-1.5,1.5-3.3,3.5-5.1,5.8c-2.5,3.1-3.8,5.1-3.8,6.1c4.2-2.9,9.9-6.8,16.9-11.7
		c1.4-1,3-1.6,4.7-1.6c1.3,0,1.6,0.7,1.6,1.2c0,0.8-0.6,1.9-1.9,3.4c-0.6,0.6-1.2,1.9-1.8,3.8c-0.6,1.9-0.9,3.6-0.9,5
		c0,2.5,1,2.5,1.4,2.5c0.2,0,0.3,0,0.5-0.1c3.1-0.7,5.7-1.8,7.8-3.2c0.6-0.4,1.1-0.5,1.7-0.5c0.6,0,0.6,0.4,0.6,0.5
		c0,0.2-0.1,0.5-0.8,1.3c-0.9,0.9-2.9,2-5.9,3.1c-3,1.1-5.3,1.7-6.9,1.7c-2.4,0-3.7-1.2-3.7-3.7c0-1.7,1-4.7,3-8.9
		c0.2-0.4,0.3-0.8,0.3-1.1c0-0.2-0.1-0.4-0.4-0.4c-0.5,0-1.1,0.3-1.9,0.8c-4.7,3.1-8.4,5.9-11,8.3c-2.6,2.5-5.9,5.5-6.3,5.8
		c-0.7,0.6-1.7,1-3,1.3C551,415.4,550.7,415.5,550.4,415.5"/>
	<path class="st0" d="M586.9,408.2c-0.9,0.9-2.8,1.9-5.8,3.1c-3,1.1-5.3,1.7-6.8,1.7c-2.3,0-3.4-1.2-3.4-3.5c0-1.7,1-4.6,3-8.8
		c0.2-0.5,0.3-0.8,0.3-1.2c0-0.4-0.2-0.6-0.6-0.6c-0.5,0-1.2,0.3-2,0.8c-4.7,3.1-8.4,5.9-11,8.3c-3.9,3.6-6,5.6-6.3,5.8
		c-0.7,0.6-1.7,1-2.9,1.3c-1.4,0.3-2,0.1-2-0.7c0-0.5,0.4-1.2,1.1-2.1c0.4-0.5,3.2-4.5,8.2-11.9c0.1-0.2,0.1-0.3,0-0.5
		c-0.2-0.2-0.2-0.3-0.1-0.5c0.8-0.7,1.9-1.8,3.2-3.1c0.8-1.1,2.2-1.6,4-1.6c0.5,0,0.7,0.1,0.7,0.3c-0.1,0.1-0.2,0.3-0.3,0.4
		c-1.5,1.5-3.2,3.4-5.1,5.8c-2.5,3.1-3.8,5.2-3.8,6.2c0,0.1,0,0.2,0.1,0.3c4.2-3,10-6.9,17.1-11.9c1.4-1,2.9-1.5,4.6-1.5
		c0.9,0,1.4,0.3,1.4,1c0,0.7-0.6,1.8-1.9,3.3c-0.6,0.7-1.2,2-1.8,3.9c-0.6,1.9-0.9,3.6-0.9,5c0,2.1,0.7,3,2.1,2.6
		c3.1-0.7,5.7-1.8,7.9-3.2c0.5-0.3,1.1-0.5,1.6-0.5c0.3,0,0.4,0.1,0.4,0.3C587.7,407.2,587.5,407.6,586.9,408.2"/>
	<path class="st0" d="M580.8,441.6c-3.1,0-5.8-1.2-7.9-3.4c-2.2-2.3-3.2-5-3.2-8.1c0-2.3,0.6-4.4,1.9-6.3c7.5-3.7,19.7-9,36.2-15.6
		c0.3-1.5,0.9-3.8,1.5-6.7c-3.3,2-6.7,4-10,6.1c-5.1,3-8.5,4.5-10.4,4.5c-2.3,0-3.5-1.2-3.5-3.4c0-0.9,0.2-1.8,0.6-2.7
		c1.4-3.1,5.2-6.6,11.4-10.4c6.4-4,11.8-6,15.9-6c2,0,2.9,0.3,2.9,1c0,0.4-0.3,1-2.9,2.3c-0.8-0.2-1.6-0.3-2.4-0.3
		c-3.1,0-7.4,1.9-12.7,5.5c-5.5,3.8-8.2,7-8.2,9.5c0,0.7,0.3,1,1.1,1c0.6,0,1.2-0.2,1.9-0.5c4.1-1.8,9.8-5.1,16.9-9.8
		c0.2-1.3,1-2.4,2.3-3c0.4-0.2,1.7-0.5,4.1-1l0.4-0.1l-0.1,0.3c-1,3.1-2.3,7-3.8,11.6c1.8-0.5,3.9-1.1,6.2-1.6
		c0.1,0,0.3-0.1,0.4-0.1c0.3,0,0.6,0.1,0.9,0.2c0.5,0.3,0.7,0.5,0.7,0.8c-0.1,0.2-0.2,0.4-0.4,0.4c-5.4,1.2-8.5,3-9.3,5.3
		c-2.5,8.2-6.1,15.1-10.5,20.3C595.2,438.2,588.4,441.6,580.8,441.6 M606.9,410.9c-5.1,2.1-10.1,4.2-15.2,6.3
		c-5.7,2.6-10.4,5.7-14.1,9.1c-2.3,2.2-3.5,4.5-3.5,6.8c0,1.8,0.6,3.3,1.8,4.6c1.2,1.3,2.5,1.9,3.8,1.9c6.7,0,12.7-3.5,18-10.4
		C601.8,424.1,604.8,417.9,606.9,410.9"/>
	<path class="st0" d="M620.5,405.5c-5.5,1.2-8.6,3-9.4,5.5c-2.5,8.2-6,15-10.4,20.2c-5.7,6.8-12.4,10.2-20,10.2
		c-3.1,0-5.6-1.1-7.8-3.4c-2.1-2.2-3.2-4.9-3.2-7.9c0-2.2,0.6-4.3,1.9-6.2c7.4-3.7,19.5-8.8,36.1-15.6c0.5-1.7,1.1-4.1,1.8-7.3
		c-3.5,2.1-6.9,4.2-10.4,6.3c-5,3-8.5,4.5-10.3,4.5c-2.2,0-3.3-1.1-3.3-3.2c0-0.8,0.2-1.7,0.6-2.6c1.4-3,5.1-6.5,11.3-10.4
		c6.4-4,11.7-6,15.8-6c1.8,0,2.7,0.3,2.7,0.8c0,0.5-0.9,1.2-2.7,2.1c-0.7-0.2-1.5-0.3-2.3-0.3c-3.2,0-7.5,1.8-12.8,5.6
		c-5.5,3.9-8.3,7.1-8.3,9.7c0,0.8,0.4,1.3,1.3,1.3c0.6,0,1.2-0.2,1.9-0.5c4.1-1.9,9.8-5.1,17-9.8c0.2-1.4,1-2.4,2.3-3
		c0.4-0.2,1.8-0.5,4.1-1c-1.1,3.2-2.4,7.2-3.9,11.9c1.9-0.6,4.1-1.2,6.5-1.8c0.3-0.1,0.7-0.1,1.1,0.2c0.4,0.2,0.6,0.4,0.6,0.6
		C620.7,405.4,620.6,405.5,620.5,405.5 M607.2,410.5c-5.2,2.2-10.4,4.4-15.6,6.5c-5.8,2.6-10.5,5.7-14.1,9.1c-2.4,2.2-3.5,4.6-3.5,7
		c0,1.9,0.6,3.4,1.9,4.7c1.2,1.3,2.6,2,4,2c6.8,0,12.8-3.5,18.2-10.4C602.1,424.1,605.1,417.8,607.2,410.5"/>
	<path class="st0" d="M411.1,428.2c0,0-36-6-81.7-2.6c-34.2,2.6-70.8,9.4-87.3,15.1c-5.1,1.8-3.3,1.4-3.5,2.1c-0.4,1,4.7,1.9,7,1.2
		c5.6-1.5,20.5-6.3,49.5-11.2c26-4.3,51.2-6.1,73.8-6.4C382,426.4,411.1,428.2,411.1,428.2"/>
	<path class="st0" d="M414.9,415.3c-2.1,0-2.5-1.3-2.5-2.4c0-0.8,0.2-1.5,0.6-2.4c1.6-2.9,5.7-9.1,12.4-18.6
		c6.6-9.5,11.2-15.6,13.5-18.3c0.2-0.3,0.9-0.8,3.7-1.9c2.1-0.8,3.4-1.2,4.1-1.2c1.2,0,1.3,0.6,1.3,1c0,0.7-0.6,1.1-1.9,1.3
		c-1.6,0.2-3.3,1.4-5.3,3.5c-2,2.2-5.3,6.7-9.8,13.3c-1.5,2.2-1.7,2.9-1.7,3.2c0,0,0,0.1,0,0.1c2.7-1.7,6.8-3,12.1-3.9
		c0.4-0.1,0.7-0.1,1-0.1c1.4,0,2.2,0.7,2.2,2.1c0,1.8-1.3,4.4-4,7.8c-2.6,3.3-5.8,6.3-9.5,8.9C424,412.8,418.5,415.3,414.9,415.3
		 M437.3,392.6l-0.1,0c-2.3,0.3-4.6,1.2-7.1,2.6c-2.4,1.4-4.4,2.9-5.8,4.7c-1.9,2.4-4,5.4-6.3,9.1c-0.2,0.4-0.2,0.6-0.1,0.7
		c0.1,0.2,0.4,0.4,0.9,0.4c4.4-0.3,8.4-2,12.2-5c3.8-3,6.2-6.5,7.2-10.4c0.2-0.6,0.1-1.1-0.1-1.5
		C437.9,392.8,437.6,392.6,437.3,392.6"/>
</g>
</svg>
